<?xml version="1.0" encoding="iso-8859-1"?>
<!-- Generator: Adobe Illustrator 19.0.0, SVG Export Plug-In . SVG Version: 6.00 Build 0)  -->
<svg version="1.1" id="Capa_1" xmlns="http://www.w3.org/2000/svg" xmlns:xlink="http://www.w3.org/1999/xlink" x="0px" y="0px"
	 viewBox="0 0 480.003 480.003" style="enable-background:new 0 0 480.003 480.003;" xml:space="preserve">
<g>
	<g>
		<path d="M416.002,336.003v-24.249c20.574-1.377,40-9.997,40-55.751c0-41.875-16.484-120-48-120c-31.516,0-48,78.125-48,120
			c0,45.754,19.426,54.374,40,55.751v24.249h-96v-24.249c20.574-1.377,40-9.997,40-55.751c0-41.875-16.484-120-48-120
			c-31.516,0-48,78.125-48,120c0,45.754,19.426,54.374,40,55.751v24.249h-96v-24.249c20.574-1.377,40-9.997,40-55.751
			c0-41.875-16.484-120-48-120c-31.516,0-48,78.125-48,120c0,45.754,19.426,54.374,40,55.751v24.249h-96v-24.249
			c20.574-1.377,40-9.997,40-55.751c0-41.875-16.484-120-48-120s-48,78.125-48,120c0,45.754,19.426,54.374,40,55.751v24.249h-64v16
			h480v-16H416.002z M40.002,256.003c0-48.219,19.367-104,32-104s32,55.781,32,104c0,40-14.828,40-32,40
			S40.002,296.003,40.002,256.003z M152.002,256.003c0-48.219,19.367-104,32-104s32,55.781,32,104c0,40-14.828,40-32,40
			C166.83,296.003,152.002,296.003,152.002,256.003z M264.002,256.003c0-48.219,19.367-104,32-104s32,55.781,32,104
			c0,40-14.828,40-32,40C278.83,296.003,264.002,296.003,264.002,256.003z M376.002,256.003c0-48.219,19.367-104,32-104
			s32,55.781,32,104c0,40-14.828,40-32,40C390.83,296.003,376.002,296.003,376.002,256.003z"/>
	</g>
</g>
<g>
	<g>
		<rect x="0.002" y="464.003" width="480" height="16"/>
	</g>
</g>
<g>
	<g>
		<rect x="24.002" y="400.003" width="48" height="16"/>
	</g>
</g>
<g>
	<g>
		<rect x="120.002" y="400.003" width="48" height="16"/>
	</g>
</g>
<g>
	<g>
		<rect x="216.002" y="400.003" width="48" height="16"/>
	</g>
</g>
<g>
	<g>
		<rect x="312.002" y="400.003" width="48" height="16"/>
	</g>
</g>
<g>
	<g>
		<rect x="408.002" y="400.003" width="48" height="16"/>
	</g>
</g>
<g>
	<g>
		<path d="M240.002,0.003c-22.081,0.026-39.974,17.919-40,40c0,22.091,17.909,40,40,40c22.091,0,40-17.909,40-40
			S262.093,0.003,240.002,0.003z M240.002,64.003c-13.255,0-24-10.745-24-24c0.014-13.249,10.751-23.986,24-24
			c13.255,0,24,10.745,24,24S253.257,64.003,240.002,64.003z"/>
	</g>
</g>
<g>
	<g>
		<path d="M112.002,16.003c-2.502,0-4.995,0.307-7.422,0.914C91.923-1.075,67.077-5.4,49.084,7.257
			c-3.753,2.64-7.021,5.908-9.661,9.661c-2.427-0.607-4.92-0.914-7.422-0.914c-17.673,0-32,14.327-32,32s14.327,32,32,32h80
			c17.673,0,32-14.327,32-32S129.675,16.003,112.002,16.003z M119.365,62.226c-2.276,1.175-4.802,1.785-7.363,1.777h-80
			c-8.837,0-16-7.163-16-16s7.163-16,16-16c2.54,0.026,5.035,0.667,7.273,1.867c3.926,2.029,8.753,0.491,10.781-3.435
			c0.06-0.117,0.118-0.235,0.172-0.354C55.64,18.056,69.775,12.695,81.8,18.107c5.321,2.394,9.581,6.654,11.975,11.975
			c0.911,1.991,2.596,3.524,4.664,4.242c2.072,0.703,4.339,0.539,6.289-0.453c7.83-4.042,17.454-0.971,21.496,6.859
			C130.266,48.56,127.195,58.184,119.365,62.226z"/>
	</g>
</g>
<g>
	<g>
		<path d="M448.002,16.003c-2.502,0-4.995,0.307-7.422,0.914C427.923-1.075,403.077-5.4,385.084,7.257
			c-3.753,2.64-7.021,5.908-9.661,9.661c-2.427-0.607-4.92-0.914-7.422-0.914c-17.673,0-32,14.327-32,32s14.327,32,32,32h80
			c17.673,0,32-14.327,32-32S465.675,16.003,448.002,16.003z M455.365,62.226c-2.276,1.175-4.802,1.785-7.363,1.777h-80
			c-8.837,0-16-7.163-16-16s7.163-16,16-16c2.54,0.026,5.035,0.667,7.273,1.867c3.926,2.029,8.753,0.491,10.781-3.435
			c0.06-0.117,0.118-0.235,0.172-0.354c5.412-12.025,19.547-17.387,31.572-11.975c5.321,2.394,9.58,6.654,11.975,11.975
			c0.911,1.991,2.596,3.524,4.664,4.242c2.072,0.703,4.339,0.539,6.289-0.453c7.83-4.042,17.454-0.971,21.496,6.859
			C466.266,48.56,463.195,58.184,455.365,62.226z"/>
	</g>
</g>
<g>
</g>
<g>
</g>
<g>
</g>
<g>
</g>
<g>
</g>
<g>
</g>
<g>
</g>
<g>
</g>
<g>
</g>
<g>
</g>
<g>
</g>
<g>
</g>
<g>
</g>
<g>
</g>
<g>
</g>
</svg>
