<svg id="Capa_1" enable-background="new 0 0 599.683 599.683" height="512" viewBox="0 0 599.683 599.683" width="512" xmlns="http://www.w3.org/2000/svg"><g><g><path d="m269.856 73.033c-2.403-4.219-7.772-5.691-11.99-3.287-.102.057-2.548 1.455-6.435 4.005-4.06 2.662-5.193 8.112-2.53 12.172 2.663 4.062 8.113 5.193 12.172 2.53 3.35-2.196 5.443-3.399 5.501-3.432 4.213-2.406 5.684-7.772 3.282-11.988z"/><path d="m342.792 486.04c-2.957 3.472-6.079 6.981-9.277 10.429-3.303 3.559-3.094 9.122.465 12.424 3.55 3.295 9.115 3.103 12.423-.465 3.367-3.63 6.656-7.326 9.773-10.986 3.148-3.697 2.704-9.245-.992-12.393-3.694-3.15-9.242-2.706-12.392.991z"/><path d="m387.697 432.334c-4.38-2.095-9.628-.244-11.724 4.136-1.901 3.974-4.044 8.041-6.37 12.086-2.42 4.21-.97 9.583 3.24 12.003 4.201 2.416 9.577.978 12.003-3.24 2.546-4.427 4.896-8.889 6.989-13.261 2.093-4.379.243-9.628-4.138-11.724z"/><path d="m405.756 395.335c.224-2.83.339-5.678.339-8.465 0-2.386-.083-4.79-.248-7.148-.34-4.843-4.553-8.497-9.384-8.154-4.843.34-8.495 4.541-8.154 9.384.136 1.949.206 3.939.205 5.917 0 2.326-.095 4.707-.283 7.077-.384 4.84 3.228 9.075 8.069 9.459 4.824.384 9.071-3.221 9.456-8.07z"/><path d="m379.672 318.636c-3.162-3.686-8.712-4.11-12.397-.949s-4.11 8.712-.949 12.397c2.94 3.428 5.624 6.969 7.976 10.526 2.679 4.05 8.133 5.162 12.182 2.483 4.05-2.679 5.162-8.132 2.483-12.182-2.753-4.164-5.881-8.294-9.295-12.275z"/><path d="m341.483 286.233c-4.03-2.599-8.301-5.176-12.695-7.66-4.226-2.389-9.59-.901-11.98 3.326s-.901 9.59 3.326 11.98c4.098 2.317 8.076 4.717 11.819 7.131 4.054 2.614 9.505 1.483 12.152-2.624 2.633-4.081 1.459-9.521-2.622-12.153z"/><path d="m273.306 250.711c-4.243-2.362-9.595-.835-11.956 3.41-2.36 4.242-.834 9.596 3.41 11.956 4.135 2.299 8.489 4.611 12.945 6.868 4.302 2.182 9.608.491 11.816-3.866 2.195-4.33.464-9.621-3.867-11.816-4.255-2.158-8.41-4.362-12.348-6.552z"/><path d="m223.881 238.374c3.686 3.142 9.237 2.715 12.393-.989 3.15-3.695 2.707-9.244-.989-12.393-3.556-3.031-6.868-6.126-9.842-9.196-3.378-3.486-8.943-3.576-12.431-.198s-3.576 8.944-.198 12.431c3.362 3.472 7.087 6.953 11.067 10.345z"/><path d="m194.497 158.162c-4.84-.114-8.896 3.694-9.028 8.547-.018.628-.026 1.256-.025 1.878 0 4.81.507 9.655 1.509 14.398 1.005 4.767 5.684 7.788 10.416 6.787 4.751-1.003 7.79-5.665 6.787-10.416-.75-3.554-1.129-7.176-1.129-10.778 0-.464.006-.926.019-1.387.131-4.854-3.696-8.896-8.549-9.029z"/><path d="m205.713 130.088c3.932 2.847 9.429 1.968 12.276-1.965 2.502-3.454 5.34-6.946 8.434-10.374 3.253-3.605 2.969-9.163-.635-12.416-3.606-3.255-9.165-2.968-12.416.635-3.516 3.896-6.755 7.88-9.624 11.844-2.848 3.932-1.968 9.427 1.965 12.276z"/><path d="m299.567 528.625c-3.247 2.685-5.179 4.156-5.196 4.169-3.867 2.935-4.624 8.449-1.689 12.317 2.945 3.88 8.459 4.616 12.318 1.689.089-.068 2.21-1.68 5.772-4.626 3.741-3.094 4.266-8.636 1.171-12.377-3.091-3.74-8.634-4.266-12.376-1.172z"/><path d="m334.459 599.683h171.124c14.685 0 28.042-8.718 34.859-22.75 79.616-163.927 61.331-311.558-114.254-365.823-56.525-17.469-124.506-46.013-127.372-82.791-2.291-29.395 36.734-63.976 115.992-102.781 12.494-6.119 8.219-25.538-5.573-25.538-18.632 0-44.247 0-63.733 0-11.026 0-21.728 2.498-31.805 7.423-24.538 11.994-56.922 29.108-88.228 49.541-93.014 52.184-140.639 102.733-141.549 150.243-.623 32.523 20.757 62.298 63.545 88.497 38.763 23.733 58.421 50.353 58.428 79.121.021 76.721-137.469 161.001-182.65 188.696-16.284 9.983-9.431 36.163 9.272 36.163h260.95c4.853 0 8.784-3.933 8.784-8.784s-3.932-8.784-8.784-8.784h-194.135c149.605-98.349 241.364-222.129 88.673-315.626-95.188-58.283-55.591-124.67 36.833-187.981 33.564-22.951 69.82-42.223 96.576-55.301 7.655-3.741 15.76-5.638 24.09-5.638h23.316c-46.541 25.112-114.8 69.816-111.98 122.62 1.081 20.253 12.555 39.424 34.101 56.982 22.769 18.555 57.707 35.956 103.837 51.721 80.151 27.39 123.951 72.783 130.183 134.918.485 4.827 4.785 8.349 9.617 7.864 4.828-.484 8.349-4.789 7.865-9.617-6.98-69.583-54.75-119.98-141.983-149.791-80.703-27.58-124.301-59.743-126.078-93.015-.659-12.342 4.217-23.946 11.066-34.221-26.238 63.855 69.418 102.424 135.552 122.862 66.763 20.634 111.283 55.678 132.325 104.161 35.523 81.852-2.724 183.748-28.685 237.202-3.852 7.931-11.154 12.858-19.056 12.858h-28.445c30.382-46.132 57.861-102.472 64.594-157.111.594-4.815-2.829-9.199-7.644-9.793-4.809-.583-9.199 2.829-9.792 7.644-3.393 27.526-16.831 84.479-68.359 159.26h-121.477c-4.853 0-8.784 3.933-8.784 8.784-.001 4.851 3.932 8.785 8.784 8.785zm-267.871-17.569h-34.072c-.101 0-.148-.011-.148-.011h-.004c-.19-.105-.676-.813-.703-1.867-.03-1.25.566-1.616.762-1.737 82.018-50.277 191.058-126.092 191.037-203.679-.009-35.296-22.492-66.956-66.824-94.1-56.429-34.55-73.789-74.624-31.923-125.499-24.894 51.46 1.797 92.931 50.177 123.791 3.499 2.231 4.58 2.816 8.221 5.137 143.004 91.15 27.533 209.392-116.523 297.965z"/></g></g></svg>