<svg id="Capa_1" enable-background="new 0 0 512 512" height="512" viewBox="0 0 512 512" width="512" xmlns="http://www.w3.org/2000/svg"><g><path d="m504.5 260.321c4.143 0 7.5-3.357 7.5-7.5v-29.583c0-4.143-3.357-7.5-7.5-7.5h-88.9v-34.354h12.271c4.143 0 7.5-3.357 7.5-7.5v-29.583c0-4.143-3.357-7.5-7.5-7.5h-76.265c-1.699-21.936-10.811-42.534-26.103-58.602-2.854-3-7.602-3.117-10.604-.262-3 2.855-3.117 7.603-.262 10.604 3.556 3.736 6.717 7.763 9.461 12.023h-28.737l-24.247-35.757c5.93 1.12 11.71 2.884 17.279 5.329 3.794 1.666 8.218-.06 9.883-3.852 1.665-3.793-.06-8.218-3.852-9.883-12.122-5.322-25.05-8.021-38.424-8.021-25.483 0-49.48 9.887-67.568 27.839-16.478 16.355-26.297 37.661-28.063 60.582h-76.24c-4.143 0-7.5 3.357-7.5 7.5v29.583c0 4.143 3.357 7.5 7.5 7.5h12.271v34.356h-23.65c-4.143 0-7.5 3.357-7.5 7.5s3.357 7.5 7.5 7.5h23.65v14.58h-81.4v-14.58h22.75c4.143 0 7.5-3.357 7.5-7.5s-3.357-7.5-7.5-7.5h-30.25c-4.143 0-7.5 3.357-7.5 7.5v29.58c0 4.143 3.357 7.5 7.5 7.5h11.549v158.72h-11.549c-4.143 0-7.5 3.357-7.5 7.5v29.58c0 4.143 3.357 7.5 7.5 7.5h169.78c4.143 0 7.5-3.357 7.5-7.5s-3.357-7.5-7.5-7.5h-162.28v-14.58h482v14.58h-284.72c-4.143 0-7.5 3.357-7.5 7.5s3.357 7.5 7.5 7.5h292.22c4.143 0 7.5-3.357 7.5-7.5v-29.58c0-4.143-3.357-7.5-7.5-7.5h-11.549v-158.719zm-7.5-29.583v14.583h-81.4v-14.583zm-96.4 188.302h-35.878v-24.088c7.601-3.002 13-10.405 13-19.06 0-11.304-9.196-20.5-20.5-20.5-8.655 0-16.058 5.399-19.06 13h-11.442v-75.782c0-4.143-3.357-7.5-7.5-7.5s-7.5 3.357-7.5 7.5v31.898h-111.442v-143.124h111.442v76.227c0 4.143 3.357 7.5 7.5 7.5s7.5-3.357 7.5-7.5v-76.227h73.88zm-245.822-37.647c-3.033 0-5.5-2.467-5.5-5.5s2.467-5.5 5.5-5.5 5.5 2.467 5.5 5.5-2.466 5.5-5.5 5.5zm7.5 13.559c5.274-2.083 9.476-6.285 11.56-11.56h11.44v35.647h-23zm38-11.559h36.662c2.083 5.274 6.285 9.476 11.56 11.56v24.088h-48.222zm0-43.884h48.222v17.324c-5.274 2.083-9.476 6.285-11.56 11.56h-36.662zm111.442 28.884h-36.66c-2.083-5.274-6.285-9.476-11.56-11.56v-17.324h48.22zm-55.72 13c-3.033 0-5.5-2.467-5.5-5.5s2.467-5.5 5.5-5.5 5.5 2.467 5.5 5.5-2.467 5.5-5.5 5.5zm7.5 13.559c5.274-2.083 9.476-6.285 11.56-11.56h36.66v35.647h-48.22zm63.22-11.559h11.442c2.083 5.274 6.285 9.476 11.56 11.56v24.088h-23.002zm30.502-2c-3.033 0-5.5-2.467-5.5-5.5s2.467-5.5 5.5-5.5 5.5 2.467 5.5 5.5-2.467 5.5-5.5 5.5zm-20.657-244.592h-37.678v-21.236h32.764c2.575 6.781 4.24 13.912 4.914 21.236zm-52.678-21.237v21.236h-55.773v-21.236zm-49.127-15 21.24-31.322 21.24 31.323h-42.48zm6.111-35.737-24.233 35.737h-28.618c11.822-18.271 30.781-31.52 52.851-35.737zm-60.486 50.737h32.728v21.236h-37.666c.688-7.407 2.373-14.533 4.938-21.236zm-88.756 36.237h328.742v14.583h-328.742zm93.649 29.583v187.009h-11.44c-3.002-7.601-10.405-13-19.06-13-11.304 0-20.5 9.196-20.5 20.5 0 8.655 5.399 16.058 13 19.06v24.088h-35.878v-237.657zm-151.229 179.363h31.451v30.29h-31.451zm0-72.426h31.451v30.29h-31.451zm0 117.716h38.951c4.143 0 7.5-3.357 7.5-7.5v-45.29c0-4.143-3.357-7.5-7.5-7.5h-38.951v-12.136h38.951c4.143 0 7.5-3.357 7.5-7.5v-45.29c0-4.143-3.357-7.5-7.5-7.5h-38.951v-13.001h62.351v158.72h-62.351zm443.902-87.426h-31.451v-30.29h31.451zm0 72.426h-31.451v-30.29h31.451zm0-117.716h-38.951c-4.143 0-7.5 3.357-7.5 7.5v45.29c0 4.143 3.357 7.5 7.5 7.5h38.951v12.136h-38.951c-4.143 0-7.5 3.357-7.5 7.5v45.29c0 4.143 3.357 7.5 7.5 7.5h38.951v13.003h-62.351v-158.719h62.352v13z"/><path d="m283.345 207.596h-54.689c-4.564 0-8.574 2.58-10.466 6.734-1.892 4.153-1.206 8.872 1.791 12.315l28.52 32.772v18.759h-9.016c-4.143 0-7.5 3.357-7.5 7.5s3.357 7.5 7.5 7.5h34.064c4.143 0 7.5-3.357 7.5-7.5s-3.357-7.5-7.5-7.5h-10.049v-18.759l28.52-32.772c2.997-3.443 3.683-8.162 1.791-12.315-1.892-4.154-5.902-6.734-10.466-6.734zm-27.345 37.591-19.659-22.591h39.318z"/><path d="m132.84 333.611h30.999c4.143 0 7.5-3.357 7.5-7.5v-45.29c0-4.143-3.357-7.5-7.5-7.5h-30.999c-4.143 0-7.5 3.357-7.5 7.5v45.29c0 4.143 3.357 7.5 7.5 7.5zm7.5-45.29h15.999v30.29h-15.999z"/><path d="m132.84 258.321h30.999c4.143 0 7.5-3.357 7.5-7.5v-45.291c0-4.143-3.357-7.5-7.5-7.5h-30.999c-4.143 0-7.5 3.357-7.5 7.5v45.291c0 4.143 3.357 7.5 7.5 7.5zm7.5-45.291h15.999v30.291h-15.999z"/><path d="m348.161 333.611h30.998c4.143 0 7.5-3.357 7.5-7.5v-45.29c0-4.143-3.357-7.5-7.5-7.5h-30.998c-4.143 0-7.5 3.357-7.5 7.5v45.29c0 4.143 3.358 7.5 7.5 7.5zm7.5-45.29h15.998v30.29h-15.998z"/><path d="m348.161 258.321h30.998c4.143 0 7.5-3.357 7.5-7.5v-45.291c0-4.143-3.357-7.5-7.5-7.5h-30.998c-4.143 0-7.5 3.357-7.5 7.5v45.291c0 4.143 3.358 7.5 7.5 7.5zm7.5-45.291h15.998v30.291h-15.998z"/></g></svg>