<svg id="Layer_1" enable-background="new 0 0 500 500" viewBox="0 0 500 500" xmlns="http://www.w3.org/2000/svg"><path clip-rule="evenodd" d="m384.282 314.661c-19.542 6.984-42.474 2.713-62.754 5.274-4.641.432-11.049.79-12.599-4.731-2.78-7.706-7.782-20.196-8.784-28.754-14.558 12.252-32.3 23.268-49.415 31.255 9.311 9.748 10.334 26.827 23.905 31.798 11.124 3.653 22.852-.862 34.011-2.065 23.036-3.093 48.675-11.378 72.136-9.567.439-7.481.158-16.299 3.5-23.21zm-131.912-11.578c-11.784 6.421-25.407 12.141-38.419 15.818 1.026-4.744-5.645-13.089-9.001-17.068-.027 0-.054-.054-.081-.054-5.932-6.153-11.198-13.77-17.291-20.112 30.441-21.027 68.971-35.593 106.173-38.212 4.448 9.643 11.516 21.777 1.021 30.059-15.838 13.643-24.7 19.56-42.402 29.569zm-49.599 18.807c-1.68-.026-7.115-8.491-8.235-9.73-5.451-6.274-10.905-16.491-15.616-24.134-6.066 5.16-7.874 9.13-11.36 15.654-11.783 24.861-27.742 55.566-43.349 77.077 5.471 2.99 12.07 7.339 17.084 11.252 15.959-21.661 32.657-44.451 50.763-64.466 4.518-5.22 2.966-3.872 10.713-5.653zm-7.083-111.647c2.571 14.403 7.392 31.116 6.05 45.55 27.555-15.247 61.296-24.674 92.721-26.471-6.164-10.241-11.342-22.698-14.567-34.19 0 0-4.653-13.535-4.653-13.535-1.172-3.287 1.073-7.04 4.8-7.229 9.027-.46 19.713-.652 28.635-.652-1.26-12.946-3.01-26.069-4.327-38.973-17.818-2.637-40.234-1.773-56.889-8.588-11.67 18.113-37.696 24.468-56.242 13.1-11.084 10.566-26.963 18.233-40.202 25.656 3.841 9.595 10.395 23.732 14.502 33.048 21.783-11.557 25.503-14.366 30.172 12.284zm-44.278-9.349c-3.117-6.236-9.216-23.377-12.132-31.363l-13.66 10.871c-1.749 1.339-3.776.83-4.539-.435-8.268-10.693-15.365-25.007-22.308-36.582-1.227-2.176-.73-4.509.766-6.305 7.374-8.439-1.691-21.753-12.089-17.72-16.294 7.968 4.976 33.291 9.381 44.464.001 0 15.455 27.775 15.455 27.775 2.845 3.698 4.844 12.248 9.947 12.882.13-.706.196-1.087.212-1.196-.016.109-.098.544-.212 1.196 10.418-1.879 18.927-2.688 29.179-3.587zm-30.13 8.969-.228 1.25h.011zm198.476-69.413c.698 8.572 1.792 22.588 2.826 30.983l9.893-1.142c9.81-.767 26.524 23.389 34.773 30.112 1.775 1.856 1.786 4.141.776 6.307-6.633 27.55 37.628 16.318 11.614-8.588-8.472-10.408-17.444-19.771-26.149-29.788-5.183-6.094-12.932-14.182-18.351-20.057-3.8-4.555-10.602-5.072-15.382-7.827zm108.891 185.898c-.319 8.664-1.799 27.748-2.544 36.527-.306 5.449.126 7.785-2.772 12.447-7.87 13.441-30.616 10.081-34.293-5.001-2.337-8.62-6.021-15.731-7.616-24.623-23.85 9.227-50.714 12.953-76.055 16.524-23.776 5.531-50.969-.049-55.567-27.83-.442-1.47-2.418-7.783-2.615-9.621-.394-2.061-2.123-3.468-1.435-4.783-13.17 5.889-30.371 11.197-44.235 13.644-18.6 20.774-38.464 40.753-57.15 61.096 6.529 6.22.98 19.258-7.034 20.601-.076-.272.016-.652-.326-1.087-.198-.235.374-.725-.043-1.359-.561-.853.568-1.77-.152-4.022-.348-1.088 1.338-4.202.636-5.599l-.06.544c-7.199-4.215-17.232-8.513-24.525-12.395-6.597-2.022-17.671 1.431-25.777-.434-4.457-.968-4.647-.354-6.001 1.359-.334 0-2.174 4.321.44 6.36 6.053 4.346 18.511 13.043 24.689 17.068 5.992 3.625 13.134 11.647 20.676 6.577 1.365-.655 2.337-3.311 3.234-3.152 1.357-.073 3.54-4.537 6.137-4.62.12.465-.328 1.336-.511 1.794.435-.435.591.335.739.652 3.264-1.707-4.106 9.924-4.946 10.925-6.412 9.388-19.426 6.756-26.999.489-15.903-10.491-54.496-24.477-31.851-47.888 4.272-3.82 10.69-5.223 16.37-4.021 8.027 1.697 20.214-3.607 31.391 2.174 6.481-19.896 18.139-41.453 25.547-61.64 12.969-31.78 18.687-40.299 49.236-57.672-6.848-17.268-11.545-34.293-15.426-52.236-9.19 3.55-21.827 14.7-25.944-.652-8.537 5.274-19.475 7.204-28.77 10.655-6.976 2.954-14.946-2.036-19.047-7.774-13.076-22.012-29.053-48.05-37.647-72.13-10.964-46.301 62.011-38.494 42.735 4.077 3.893 7.159 11.826 22.446 14.861 29.515 1.505 0 5.465-3.872 6.577-3.533.934.284 4.229-1.994 4.952-2.392-1.708-4.421.917-7.905 4.811-9.186 9.385-4.397 19.753-10.483 29.341-13.915 3.78-2.034 10.447-3.906 14.008-6.305-28.661-20.002-13.27-76.95 24.413-68.87.415.246 1.824 1.894 3.217 2.556-.516.272-1.033.38-1.337.87-.208.304-.996-.05-1.516.598-.653.815-2.791.648-4.115 2.12-30.323 9.491-26.99 59.189 7.742 58.106 32.396-1.048 37.965-46.679 8.211-56.911-1.558-.367.738-.349-2.837-1.412-1.14-.046-4.728-.65-6.147-2.011.374-.393 1.502-.459 2.055-.544-.735-.327-.027-.555.147-.978-4.403-2.833 15.627-.691 16.502.599 19.512 6.805 26.541 31.957 19.019 49.952 16.022.188 31.643-2.613 47.746-.379 11.723 1.762 20.759-1.126 20.248 14.512 6.193-.399 15.703.336 21.199 3.478 22.064 15.509 41.027 39.302 57.244 60.769 13.488 17.809-4.611 44.788-26.317 37.126-12.437-3.821-19.336-17.473-15.517-29.732-5.964-6.483-18.364-20.928-23.373-27.613-.016 0-.038 0-.054-.054-3.228-.768-6.373.238-7.115-.652-.303-.364-1.511-.419-2.066-.489 1.127 5.083-1.407 10.806-7.355 10.708 0 0-26.34-.707-26.34-.707 3.967 13.412 7.798 29.734 10.551 42.724 3.95-.103 7.333 9.939 8.99 13.426 7.281 12.332 6.853 27.971-.489 36.092.281 1.22 1.327 1.786 1.854 3.261 1.097 3.074 1.644 2.742 1.946 3.479 3.892 5.314 6.341 13.547 8.746 19.785 16.171-.562 34.837 1.111 51.046 1.631 0 0 1.381.108 1.381.108 2.843.922 4.155.479 8.137 1.467 1.074.432 2.691-.721 3.049.109.272.63 2.081.326 2.082.326 5.575-5.753 7.643-3.919 10.137-.87-5.927 2.296-.991 24.926-1.496 31.472.455 6.072 4.691 15.9 7.035 23.699.277 6.339 7.872 9.453 9.828 2.772-.001 0 3.511-26.145 3.511-26.145.213-6.655 3.771-16.372-.457-21.905.145-1.261-6.218-3.754-7.136-4.24-1.54-.923-4.103-.265-4.43-1.142-.74-1.153-5.759-.859-7.05-3.207.321-.292 1.357-.326 1.788-.326-.191-.318-.589-.051.244-.979-.101-.308-2.534-1.097 2.62-1.196 14.027-1.942 28.521 2.744 27.42 19.459zm5.218-225.251c-1.143-7.126-3.056-8.521-9.915-7.555-2.752 1.234-6.525 1.02-9.681 2.12-.06-.183-.155-.155-.364.054-1.52 0-2.294 1.077-2.968 2.337-1.759 3.246-1.644 2.142-1.56 4.675.005 0 .005.054.016.109-.559.7.147 2.534.479 2.011.439 0 .339.818.457.707.746-.705.574.253 1.533.544.179-.145.326.242.495.163.357.894.083.489.435.489.06 0 .119.109.179.109l3.354.489 4.033 1.087c1.029-.225 3.108-.393 4.153-.272.057-.194 2.766-.293 3.338-.326.412.226 1.702.146 2.131-.489l.37-.054c.147-.272.293-.707.44-.544.05 0-.041-.272.234-.272.762-1.109.718-.187 1.31-1.033.346-.494.671.081.788-.544.236-1.257.459-.645.549-1.413.367-2.012.401-.328.194-2.392zm-34.402 163.448c-11.633 1.626-22.779.741-34.571 2.989-.874.467-7.744 4.046-7.582 4.839.074.361.433-.04.228.87v.489c.016 0 .038.054.054.054-.764.695-1.074.251-.147 1.576.622.888 1.4.453 1.69.489 1.38.174.652.872 1.158.707 2.105-.687 2.475.286 4.392.544 17.098 2.189 37.342 3.432 54.432.598.016.054.043 0 .06 0 .333-.462.795.03 1.152-.489.303-.44 1.98-.125 3.261-.761 1.201-.596 1.834.048 2.245-.544 1.033-1.485 1.259-.569 1.571-1.468.213-.615.465-.2.533-.544.114-.435.288-.543.467-.761-4.479-11.783-19.467-8.542-28.943-8.588zm-58.759 140.51c-10.029-12.59-54.708-6.573-71.238-6.795-15.788.96-32.585.292-49.677 2.284-3.072 1.221-12.429 2.909-14.524 4.838 1.376.53-.21.93.533 1.413-.497.243-1.068.207-1.343.652 1.627 2.37 3.923.757 5.952 1.848 25.801 2.382 52.471 3.212 78.751 2.827 15.413-.003 32.544-.409 47.458-3.208 1.996-1.507 2.467-.596 3.011-1.467.342-.547.911-.296 1.033-.544.212-.489.538-.598.875-.761-.445-.38-.445-.38-.831-1.087zm47.138-.217c-.572-8.892-5.967-8.157-11.496-6.577-1.182.828-3.358.356-5.392 1.359-.067.177-.038-.301-.239 0-.068.101-1.378.168-1.832.924-.491.818-2.341 4.07-2.278 4.838.119 1.953-.099 1.728-.103 2.283.32 2.007.599 1.017.652 1.196.06 0 .119.109.179.109l.163.598c.264-.771.991.38 1.805.87.103.659.172.272.321.272 2.254.068 6.224 2.176 8.452 1.413 1.58-.283 5.539.189 6.751-.87.661-1.155.58-.543.831-1.25.001 0 .623-.103.892-.598.255-.469.582.03.668-.489.542-1.607.913-2.588.626-4.078zm-59.726-301.132c.407 1.631 2.137.798 2.511 1.576.186.774.989-.323 1.587.055 1.824.895 2.556.695 3.501.924 13.263 2.574 29.433 2.338 43.082 1.033.343-.272.679-.707 1.044-.544.104.022-.066-.272.555-.272.546 0 .153-.419 1.033-.489 2.063-.165 2.333-.879 2.935-.761 1.438.282 1.071-1.155 2.022-1.305.432-.068.311-.869.641-.869.242 0 .017-.161.533-.924-1.289-2.821.271-2.001-2.826-5.164-1.301-1.343-1.126-.569-2.169-1.739-1.398-1.568-6.425-1.575-6.43-1.576-11.81-1.287-24.079 1.363-35.837 2.01-4.034-.473-7.849 1.999-10.86 4.513-1.776 1.226-.77 1.262-.788 1.685-.019.425-.229.605-.07.87.016 0 .027.054.043.109-.256.139-.718.444-.507.868z" fill-rule="evenodd"/></svg>