<svg id="Layer_1" enable-background="new 0 0 512 512" height="512" viewBox="0 0 512 512" width="512" xmlns="http://www.w3.org/2000/svg"><g><path d="m421.625 286.125c0-8.284-6.716-15-15-15h-15.125v-180.875h15.125c7.19 0 13.37-5.103 14.729-12.163 1.36-7.062-2.482-14.094-9.159-16.764l-150.624-60.249c-3.576-1.432-7.565-1.432-11.142 0l-150.625 60.25c-6.676 2.67-10.519 9.702-9.159 16.764 1.36 7.061 7.539 12.163 14.729 12.163h15.126v180.875h-15.125c-8.284 0-15 6.716-15 15s6.716 15 15 15h12.84l-27.565 193.762c-.612 4.303.672 8.66 3.521 11.943s6.983 5.169 11.329 5.169h60.25c7.468 0 13.799-5.494 14.851-12.888l6.38-44.844 68.979-51.727 69.079 51.857 6.361 44.714c1.052 7.394 7.382 12.888 14.851 12.888h60.25c4.347 0 8.48-1.886 11.329-5.169s4.134-7.641 3.521-11.943l-27.566-193.763h12.84c8.284 0 15-6.715 15-15zm-165.625-254.969 72.736 29.095h-145.472zm105.5 59.094v180.875h-211v-180.875zm-54.607 236.599-50.924 38.187-50.862-38.182 3.66-25.729h94.466zm-184.108 155.151 25.732-180.875h29.948l-25.732 180.875zm70.167-69.708 7.333-51.544 30.685 23.035zm88.006-28.496 30.755-23.063 7.351 51.668zm78.309 98.204-25.732-180.875h29.948l25.732 180.875z"/><path d="m256 240.875c24.161 0 43.817-19.656 43.817-43.817 0-33.511-29.225-67.682-32.558-71.468-2.848-3.235-6.95-5.09-11.26-5.09s-8.412 1.854-11.26 5.09c-3.333 3.786-32.558 37.957-32.558 71.468.002 24.161 19.658 43.817 43.819 43.817zm-.017-80.159c6.885 10.802 13.835 24.779 13.835 36.342 0 7.619-6.198 13.817-13.817 13.817s-13.817-6.198-13.817-13.817c-.001-11.631 6.885-25.528 13.799-36.342z"/></g></svg>