<svg id="Layer_1" enable-background="new 0 0 48 48" height="512" viewBox="0 0 48 48" width="512" xmlns="http://www.w3.org/2000/svg"><g fill="rgb(0,0,0)"><g><path d="m0 30h30v2h-30z"/><path d="m29 42h-28c-.6 0-1-.4-1-1v-3c0-.5.2-1 .6-1.4s.9-.6 1.4-.6h26c.5 0 1 .2 1.4.6s.6.9.6 1.4v3c0 .6-.4 1-1 1zm-27-2h26v-2h-26z"/><path d="m0 26h30v2h-30z"/><path d="m6 24h2v13h-2z"/><path d="m22 24h2v13h-2z"/><path d="m4 41h2v5h-2z"/><path d="m8 41h2v5h-2z"/><path d="m20 41h2v5h-2z"/><path d="m24 41h2v5h-2z"/></g><g><g><path d="m32 13h2v33h-2z"/><path d="m32.4 34.5h4.2v2h-4.2z" transform="matrix(.707 -.707 .707 .707 -14.998 34.793)"/><path d="m30 20.2h2v5.7h-2z" transform="matrix(.707 -.707 .707 .707 -7.184 28.657)"/><path d="m32 18.5h7.1v2h-7.1z" transform="matrix(.707 -.707 .707 .707 -3.391 30.814)"/></g><path d="m39 28h-6c-.6 0-1-.4-1-1s.4-1 1-1h6c3.9 0 7-3.1 7-7 0-3.3-2.3-6.2-5.5-6.8-.3-.1-.5-.2-.6-.5-.1-.2-.2-.5-.1-.8.1-.6.2-1.3.2-1.9 0-3.9-3.1-7-7-7s-7 3.1-7 7c0 .6.1 1.3.3 1.9.1.3 0 .6-.1.8s-.4.4-.6.5c-3.3.6-5.6 3.5-5.6 6.8 0 .9.2 1.8.5 2.6.2.5 0 1.1-.6 1.3s-1.1 0-1.3-.6c-.4-1-.6-2.1-.6-3.3 0-3.9 2.5-7.3 6.1-8.5-.1-.5-.1-1-.1-1.5 0-5 4-9 9-9s9 4 9 9c0 .5 0 1-.1 1.5 3.6 1.2 6.1 4.7 6.1 8.5 0 5-4 9-9 9z"/></g><g><path d="m0 45h28v2h-28z"/><path d="m30 45h18v2h-18z"/></g><g><path d="m11 14h-2c0-3.9 3.1-7 7-7v2c-2.8 0-5 2.2-5 5z"/><path d="m11 14h-2c0-1.7-1.3-3-3-3v-2c2.8 0 5 2.2 5 5z"/></g></g></svg>