<svg id="Layer_1" enable-background="new 0 0 53 53" height="512" viewBox="0 0 53 53" width="512" xmlns="http://www.w3.org/2000/svg"><g id="_x37_"><path d="m45.5064697 41.2591591 1.4139404-7.5110474c.2710075-1.4333382-.6632118-2.8330479-2.1171875-3.1083984l-3.6730347-.6907349 3.9387817-20.4235229 1.5721436.2861328c1.0542107.1940804 2.0460587-.5118799 2.2373047-1.5507813l.4013672-2.1826177c.0004883-.0004883.0004883-.0014648.0004883-.0019531.1905937-1.0518012-.4989204-2.0508609-1.5527344-2.2421873l-5.0810547-.925293c-1.0458984-.1933594-2.0449219.5-2.2363281 1.5434568l-.4013672 2.1894531c-.1927299 1.0463886.4993324 2.052752 1.5512695 2.2451177l1.5410156.2804565-3.9365234 20.4121094-3.7192383-.6994019c-1.4354439-.2739944-2.8380165.6723881-3.1103516 2.1201172l-.5768433 3.102356c-1.4388426-1.2670897-3.2951048-1.9685668-5.2581175-1.9685668-3.7700195 0-6.9257813 2.5546875-7.796875 6.059082-.1884766-.0869141-.3820801-.163269-.5795898-.2296753v-7.9483643c2.9825249.6079998 6.4987717.5673943 9.0219727-1.1793823 4.0410156-2.7856445 4.2646484-8.9916992 4.2719727-9.2543945.0126953-.4472656-.2724609-.8481445-.6992188-.9824219-.2553711-.0810547-6.2924805-1.9345703-10.3198242.8515625-.9593506.6640625-1.6978149 1.5228882-2.2749023 2.4463501v-6.5402832c2.3684196.2182407 5.0659828-.1070747 6.8925781-1.6629028 2.9824219-2.5395508 2.6542969-7.4472661 2.6386719-7.6552739-.0327148-.4443359-.3564453-.8134766-.7929688-.9047852-.2075195-.0424805-5.1118164-1.03125-8.0825195 1.487793-.2422485.2062988-.4552612.4326172-.6557617.6665039v-3.2822265c0-.5522459-.4477539-.9999998-1-.9999998s-1 .4477539-1 .9999998v3.3699341c-.2200928-.2664185-.4564209-.5234985-.7290039-.7556763-2.9682617-2.5166016-7.8735352-1.5288086-8.0805664-1.4863281-.4365236.0913085-.7602541.4604492-.7929689.9047851-.015625.2080078-.34375 5.1157231 2.6386719 7.6552739 1.8400984 1.5678749 4.5730228 1.8891106 6.9638672 1.6569824v6.5462036c-.5779419-.9234009-1.3170166-1.7822876-2.2763672-2.4463501-4.0258789-2.7856445-10.0649414-.9326171-10.319336-.8515624-.4267578.1342773-.7119141.5351563-.6992188.9824219.0073242.2626953.230957 6.46875 4.2714844 9.2543945 2.5157042 1.7361488 6.0174055 1.7914925 9.0234375 1.1809692v7.6453247c-2.597229.0427856-4.8209839 1.7761841-5.5727539 4.1444092-.7895507-.3745117-1.6596679-.5727539-2.5507812-.5727539-3.2861328 0-5.9599609 2.6782227-5.9599609 5.9702148 0 .7988281.1577148 1.5761719.46875 2.3100586.1567382.3696289.5195312.6098633.9208984.6098633h46.1401367c.4013672 0 .7641602-.2402344.9208984-.6098633.3115234-.7348633.4692383-1.512207.4692383-2.3100586 0-3.1207275-2.4039917-5.6856689-5.4534912-5.944519zm-3.1436767-36.368958 4.9365234.8989258-.375 2.0410156-4.9355469-.8984375zm-8.0625 26.4780278c.0670471-.3535175.4191055-.5909195.7729492-.5229492l9.359375 1.7597656c.3591461.0683594.5903168.4162102.5224609.7724609l-1.5200806 8.0728149c-.3375854.09198-.6671753.2053833-.9784546.3544312-.7646484-2.3969727-3.0336914-4.1508789-5.6665039-4.1508789-.8793945 0-1.7314453.1884766-2.5014648.5454102-.1856079-.7507324-.4802246-1.463623-.8706055-2.1229858.0025024-.0114136.0105591-.0197754.0126953-.031311zm-12.7631836-10.2734375c2.4858398-1.7192383 6.2207031-1.1425781 7.8149414-.784668-.1845703 1.5888672-.8686523 5.1743164-3.3427734 6.8798828-1.8825684 1.3024292-4.4767456 1.2907104-6.3205566 1.053894l4.9431152-3.2653198c.4609375-.3046875.5874023-.9248047.2832031-1.3857422-.3037109-.4594727-.9228516-.5864258-1.3857422-.2832031l-5.1199951 3.3822021c.3649292-1.7830809 1.1998291-4.2626952 3.1278076-5.5970458zm-1.4628906-12.949707c1.6274414-1.3803716 4.2768555-1.3085942 5.5913086-1.1665044-.0415039 1.2871099-.3374023 3.8227544-1.9462891 5.1923833-1.1365967.968689-2.7654419 1.2202759-4.0959473 1.239624l2.9226074-2.4866943c.4208984-.3579102.4716797-.9892578.1137695-1.409668-.3574218-.4204102-.9892577-.472168-1.4096679-.1137695l-2.9865112 2.5411377c.2156982-1.333313.7197876-2.8671265 1.81073-3.7965088zm-11.5639649-1.1728521c1.4960938-.1611328 4.0634766-.1225586 5.5893555 1.1713872 1.1183472.9526978 1.595459 2.465332 1.8004761 3.7359619l-2.9821167-2.4854736c-.4243164-.3540039-1.0541992-.2958984-1.4082031.1279297-.3535156.4243164-.2963867 1.0546875.1279297 1.4082031l2.9786377 2.4824219c-1.3968506-.0214233-3.0507813-.296875-4.15979-1.2416992-1.6113283-1.3720703-1.9057618-3.9135742-1.9462892-5.198731zm-.2749023 20.2167974c-2.4628906-1.6977539-3.1523438-5.2905273-3.3398438-6.8808594 1.59375-.3613281 5.3188477-.9394531 7.8129883.7866211 1.9049683 1.3184204 2.7476807 3.756897 3.1224976 5.5354614l-4.7846069-3.3084106c-.4560547-.3149414-1.0776367-.2016602-1.3911133.253418-.3144531.4541016-.2006836 1.0771484.253418 1.3911133l4.7251587 3.2674561c-1.8486939.2454223-4.4853517.2749022-6.3984986-1.0447999zm40.6157226 20.9345703h-44.7021484c-.0722656-.2998047-.1088867-.6074219-.1088867-.9199219 0-2.1889648 1.7763672-3.9702148 3.9599609-3.9702148.9672852 0 1.8964844.3510742 2.6166992.9887695.2924805.2587891.7080078.3227539 1.0649414.1669922.3574219-.1567383.5908203-.5068359.5981445-.8964844.0400391-2.1166992 1.8076172-3.8388672 3.9399414-3.8388672.9868164 0 1.878418.3354492 2.578125.9707031.2880859.2607422.7011719.3295898 1.0595703.1811523.3588867-.1508789.597168-.4960938.6118164-.8847656.1206055-3.2451172 2.7695313-5.7871094 6.0307617-5.7871094 1.5249023 0 2.9628906.5551758 4.0595703 1.5712891 1.2060547 1.090332 1.9023438 2.590332 1.9609375 4.2241211.0141602.3891602.2524414.7348633.6113281.8857422.3574219.1508789.7719727.0805664 1.0605469-.1811523.6958008-.6318359 1.6186523-.9799805 2.5976563-.9799805 2.125 0 3.8925781 1.7192383 3.9404297 3.8320313.0083008.3823242.234375.7260742.581543.8857422.3457031.1601563.7558594.1083984 1.0507813-.1342773.0786133-.0639648.1557617-.1303711.2954102-.2226563.6845703-.5112305 1.4946289-.78125 2.3417969-.78125 2.1835938 0 3.9599609 1.78125 3.9599609 3.9702148-.0000001.3125-.0366212.6201172-.1088868.9199219z"/><circle cx="24.987" cy="39.837" r="1.05"/><path d="m26.5 44.2881508c-.5522461 0-1.050293.4980469-1.050293 1.050293s.4980469 1.0498046 1.050293 1.0498046 1.0498047-.4975586 1.0498047-1.0498047-.4975586-1.0502929-1.0498047-1.0502929z"/><path d="m29.6225586 37.6865883c0-.5522461-.4975586-1.0498047-1.0498047-1.0498047s-1.050293.4975586-1.050293 1.0498047.4980469 1.050293 1.050293 1.050293 1.0498047-.4980469 1.0498047-1.050293z"/><path d="m18.6616211 43.6528969c-.5522461 0-1.0498047.4975586-1.0498047 1.0498047s.4975586 1.050293 1.0498047 1.050293 1.0498047-.4980469 1.0498047-1.050293-.4975586-1.0498047-1.0498047-1.0498047z"/><path d="m13.6494141 44.8628578c-.5522461 0-1.050293.4980469-1.050293 1.050293s.4980469 1.0498047 1.050293 1.0498047 1.0498047-.4975586 1.0498047-1.0498047-.4975586-1.050293-1.0498047-1.050293z"/><path d="m7.8984375 44.7627602c-.5522461 0-1.0498047.4980469-1.0498047 1.050293s.4975586 1.0498047 1.0498047 1.0498047 1.050293-.4975586 1.050293-1.0498047-.4980469-1.050293-1.050293-1.050293z"/><path d="m15.2866211 41.8071938c-.5522461 0-1.0498047.4975586-1.0498047 1.0498047s.4975586 1.050293 1.0498047 1.050293 1.050293-.4980469 1.050293-1.050293-.4980469-1.0498047-1.050293-1.0498047z"/><path d="m29.2084961 41.3325844c-.5522461 0-1.050293.4980469-1.050293 1.050293s.4980469 1.0498047 1.050293 1.0498047 1.0498047-.4975586 1.0498047-1.0498047-.4975586-1.050293-1.0498047-1.050293z"/><path d="m45.0810547 44.9629555c-.5522461 0-1.050293.4980469-1.050293 1.050293s.4980469 1.0498047 1.050293 1.0498047 1.0498047-.4975586 1.0498047-1.0498047-.4975586-1.050293-1.0498047-1.050293z"/><path d="m33.5322266 44.3384438c-.5522461 0-1.0498047.4975586-1.0498047 1.0498047s.4975586 1.050293 1.0498047 1.050293 1.050293-.4980469 1.050293-1.050293-.4980469-1.0498047-1.050293-1.0498047z"/><path d="m37.3818359 41.7573891c-.5522461 0-1.0498047.4975586-1.0498047 1.0498047s.4975586 1.0498047 1.0498047 1.0498047 1.050293-.4975586 1.050293-1.0498047-.4980469-1.0498047-1.050293-1.0498047z"/><path d="m39.6494141 44.8130531c-.5522461 0-1.0498047.4975586-1.0498047 1.0498047s.4975586 1.050293 1.0498047 1.050293 1.0498047-.4980469 1.0498047-1.050293-.4975586-1.0498047-1.0498047-1.0498047z"/><path d="m22.722168 42.1763344c-.5522461 0-1.0498047.4975586-1.0498047 1.0498047s.4975586 1.050293 1.0498047 1.050293 1.050293-.4980469 1.050293-1.050293-.4980469-1.0498047-1.050293-1.0498047z"/></g></svg>