<svg id="Layer_1" enable-background="new 0 0 512 512" height="512" viewBox="0 0 512 512" width="512" xmlns="http://www.w3.org/2000/svg"><path d="m235.524 324.723h52.379c.024 0 .047-.003.071-.004 11.423-.023 22.157-5.605 30.884-15.878 2.217 2.811 3.529 6.384 3.548 10.375l-.035 43.635c-8.547 1.335-13.57 5.984-17.384 9.534-3.773 3.512-6.051 5.631-11.419 5.631s-7.646-2.119-11.419-5.631c-4.498-4.187-10.657-9.919-22.319-9.919s-17.821 5.732-22.319 9.919c-3.773 3.512-6.051 5.631-11.419 5.631-4.418 0-8 3.582-8 8s3.582 8 8 8c11.662 0 17.821-5.732 22.319-9.919 3.773-3.512 6.051-5.631 11.419-5.631s7.646 2.119 11.419 5.631c4.498 4.187 10.657 9.919 22.319 9.919s17.821-5.732 22.319-9.919c3.773-3.512 6.051-5.631 11.419-5.631s7.646 2.119 11.419 5.631c4.498 4.187 10.658 9.919 22.32 9.919 11.661 0 17.821-5.732 22.318-9.919 3.773-3.512 6.051-5.631 11.419-5.631s7.646 2.119 11.42 5.631c4.497 4.187 10.657 9.919 22.319 9.919s17.821-5.732 22.319-9.919c3.773-3.512 6.051-5.631 11.419-5.631s7.646 2.119 11.419 5.631c4.498 4.187 10.657 9.919 22.319 9.919 4.418 0 8-3.582 8-8s-3.582-8-8-8c-5.368 0-7.646-2.119-11.419-5.631-4.498-4.187-10.657-9.919-22.319-9.919s-17.821 5.732-22.319 9.919c-3.773 3.512-6.051 5.631-11.419 5.631s-7.646-2.119-11.42-5.631c-4.452-4.144-10.54-9.793-21.972-9.908l-.042-43.516c-.113-23.942-9.457-46.388-26.309-63.202-8.926-8.905-19.431-15.669-30.891-20.087-3.654-37.778-24.546-65.637-49.987-65.637h-52.379c-9.384 0-18 5.62-24.884 16.003h-60.858l-27.508-142.292c-.728-3.763-4.021-6.481-7.854-6.481h-98.417c-4.418 0-8 3.582-8 8v407.272c0 4.418 3.582 8 8 8h177.16c2.388 0 4.65-1.066 6.171-2.908 1.52-1.842 2.137-4.266 1.684-6.61l-27.513-142.299h37.138c6.884 10.384 15.5 16.003 24.884 16.003zm143.566-5.716.046 47.938c-2.68 1.739-4.82 3.718-6.67 5.44-3.773 3.512-6.051 5.631-11.419 5.631-5.369 0-7.646-2.119-11.42-5.631-2.799-2.605-6.244-5.808-11.256-7.857l.036-45.343c-.086-18.291-14.542-32.619-32.947-32.619l-17.047.079c-1.1-.747-3.231-2.979-5.042-5.928-5.573-9.079-8.239-22.038-8.013-34.84l30.139-.218c40.388.001 73.401 32.918 73.593 73.348zm-86.654-104.967c2.659 4.332 4.703 9.664 6.076 15.67l-21.274.153c1.338-5.896 3.378-11.335 6.133-15.823 1.561-2.542 3.361-4.552 4.532-5.536 1.172.984 2.972 2.993 4.533 5.536zm28.726 17c-2.057-.359-4.128-.661-6.22-.878-1.359-7.518-3.948-16.475-8.871-24.492-3.125-5.092-9.641-13.635-18.168-13.635-8.525 0-15.042 8.542-18.167 13.634-13.88 22.608-13.88 60.811-.001 83.419 2.744 4.471 8.471 12.162 15.998 13.449.458.079.936.127 1.385.114l15.529-.072c-4.625 4.011-9.657 6.143-14.744 6.143-18.737 0-34.566-28.092-34.566-61.344s15.829-61.344 34.566-61.344c15.291.001 29.074 19.383 33.259 45.006zm-85.638-45.005h21.249c-11.894 14.029-19.437 36.085-19.437 61.344s7.543 47.315 19.438 61.345h-21.25c-9.795 0-24.023-23.897-24.023-61.345 0-37.447 14.228-61.344 24.023-61.344zm-211.524 258.502v-391.273h83.815l75.65 391.272h-159.465zm128.876-242.499h49.92c-4.725 13.042-7.295 28.832-7.295 45.341s2.57 32.3 7.295 45.342h-32.387zm351.124 224.338c0 4.418-3.582 8-8 8-11.662 0-17.822-5.733-22.319-9.919-3.773-3.513-6.051-5.632-11.419-5.632s-7.646 2.119-11.419 5.632c-4.497 4.186-10.657 9.919-22.319 9.919s-17.822-5.733-22.32-9.919c-3.772-3.512-6.051-5.632-11.419-5.632s-7.646 2.119-11.418 5.632c-4.498 4.186-10.658 9.919-22.319 9.919-11.662 0-17.822-5.733-22.32-9.92-3.773-3.512-6.051-5.631-11.419-5.631s-7.646 2.119-11.419 5.632c-4.497 4.186-10.657 9.919-22.319 9.919s-17.822-5.733-22.319-9.919c-3.773-3.513-6.051-5.632-11.419-5.632s-7.646 2.119-11.419 5.632c-4.497 4.186-10.657 9.919-22.319 9.919-4.418 0-8-3.582-8-8s3.582-8 8-8c5.368 0 7.646-2.119 11.419-5.632 4.497-4.186 10.657-9.919 22.319-9.919s17.822 5.733 22.319 9.919c3.773 3.513 6.051 5.632 11.419 5.632s7.646-2.119 11.419-5.632c4.497-4.186 10.657-9.919 22.319-9.919s17.821 5.733 22.319 9.919c3.773 3.512 6.051 5.632 11.42 5.632 5.368 0 7.646-2.119 11.418-5.632 4.498-4.186 10.658-9.919 22.319-9.919 11.662 0 17.822 5.733 22.32 9.919 3.772 3.512 6.051 5.632 11.419 5.632s7.646-2.119 11.419-5.632c4.497-4.186 10.657-9.919 22.319-9.919s17.822 5.733 22.319 9.919c3.773 3.513 6.051 5.632 11.419 5.632 4.418 0 8 3.582 8 8zm0 40.36c0 4.418-3.582 8-8 8-11.662 0-17.822-5.733-22.319-9.919-3.773-3.513-6.051-5.632-11.419-5.632s-7.646 2.119-11.419 5.632c-4.497 4.186-10.657 9.919-22.319 9.919s-17.822-5.733-22.32-9.919c-3.772-3.512-6.051-5.632-11.419-5.632s-7.646 2.119-11.418 5.632c-4.498 4.186-10.658 9.919-22.319 9.919-11.662 0-17.822-5.733-22.32-9.92-3.773-3.512-6.051-5.631-11.419-5.631s-7.646 2.119-11.419 5.632c-4.497 4.186-10.657 9.919-22.319 9.919s-17.822-5.733-22.319-9.919c-3.773-3.513-6.051-5.632-11.419-5.632s-7.646 2.119-11.419 5.632c-4.497 4.186-10.657 9.919-22.319 9.919-4.418 0-8-3.582-8-8s3.582-8 8-8c5.368 0 7.646-2.119 11.419-5.632 4.497-4.186 10.657-9.919 22.319-9.919s17.822 5.733 22.319 9.919c3.773 3.513 6.051 5.632 11.419 5.632s7.646-2.119 11.419-5.632c4.497-4.186 10.657-9.919 22.319-9.919s17.821 5.733 22.319 9.919c3.773 3.512 6.051 5.632 11.42 5.632 5.368 0 7.646-2.119 11.418-5.632 4.498-4.186 10.658-9.919 22.319-9.919 11.662 0 17.822 5.733 22.32 9.919 3.772 3.512 6.051 5.632 11.419 5.632s7.646-2.119 11.419-5.632c4.497-4.186 10.657-9.919 22.319-9.919s17.822 5.733 22.319 9.919c3.773 3.513 6.051 5.632 11.419 5.632 4.418 0 8 3.582 8 8z"/></svg>