<svg xmlns="http://www.w3.org/2000/svg" xmlns:xlink="http://www.w3.org/1999/xlink" fill="#000000" height="440.4" preserveAspectRatio="xMidYMid meet" viewBox="47.0 35.7 418.0 440.4" width="418"><g fill="#000000" id="change1_1"><path d="M 455.566406 466.605469 L 56.433594 466.605469 L 56.433594 178.996094 L 256 46.339844 L 455.566406 178.996094 Z M 462.902344 172.53125 L 258.613281 36.738281 C 257.027344 35.6875 254.972656 35.6875 253.386719 36.738281 L 49.097656 172.53125 C 47.78125 173.40625 46.988281 174.882812 46.988281 176.464844 L 46.988281 471.328125 C 46.988281 473.9375 49.101562 476.050781 51.710938 476.050781 L 460.289062 476.050781 C 462.894531 476.050781 465.011719 473.9375 465.011719 471.328125 L 465.011719 176.464844 C 465.011719 174.882812 464.21875 173.40625 462.902344 172.53125" fill="inherit"></path><path d="M 201.183594 149.808594 C 204.765625 153.359375 206.464844 158.265625 205.84375 163.269531 C 205.222656 168.273438 202.375 172.617188 198.035156 175.1875 C 195.792969 176.515625 195.050781 179.410156 196.378906 181.65625 C 197.261719 183.144531 198.832031 183.96875 200.445312 183.96875 C 201.261719 183.96875 202.09375 183.757812 202.847656 183.3125 C 209.722656 179.242188 214.230469 172.359375 215.214844 164.433594 C 216.195312 156.5 213.507812 148.730469 207.835938 143.105469 L 205.496094 140.78125 C 201.90625 137.222656 200.164062 132.304688 200.714844 127.277344 C 201.265625 122.257812 204.03125 117.828125 208.304688 115.132812 C 210.511719 113.742188 211.171875 110.824219 209.777344 108.621094 C 208.390625 106.417969 205.484375 105.761719 203.265625 107.148438 C 196.546875 111.386719 192.191406 118.351562 191.328125 126.25 C 190.460938 134.148438 193.203125 141.890625 198.84375 147.484375 L 201.183594 149.808594" fill="inherit"></path><path d="M 244.035156 126.25 C 243.171875 134.148438 245.910156 141.890625 251.554688 147.488281 L 253.894531 149.808594 C 257.476562 153.359375 259.171875 158.265625 258.550781 163.269531 C 257.929688 168.273438 255.085938 172.617188 250.746094 175.1875 C 248.503906 176.515625 247.757812 179.410156 249.089844 181.65625 C 249.96875 183.144531 251.539062 183.96875 253.15625 183.96875 C 253.972656 183.96875 254.800781 183.757812 255.554688 183.3125 C 262.429688 179.242188 266.9375 172.359375 267.921875 164.433594 C 268.90625 156.503906 266.21875 148.730469 260.542969 143.105469 L 258.203125 140.78125 C 254.613281 137.222656 252.875 132.304688 253.421875 127.277344 C 253.972656 122.257812 256.738281 117.828125 261.015625 115.132812 C 263.21875 113.742188 263.878906 110.824219 262.488281 108.621094 C 261.101562 106.417969 258.1875 105.761719 255.976562 107.148438 C 249.253906 111.386719 244.902344 118.351562 244.035156 126.25" fill="inherit"></path><path d="M 306.605469 149.808594 C 310.183594 153.359375 311.882812 158.265625 311.257812 163.269531 C 310.636719 168.273438 307.792969 172.617188 303.453125 175.1875 C 301.210938 176.515625 300.46875 179.410156 301.796875 181.65625 C 302.679688 183.144531 304.25 183.96875 305.863281 183.96875 C 306.679688 183.96875 307.511719 183.757812 308.265625 183.3125 C 315.136719 179.242188 319.648438 172.359375 320.628906 164.433594 C 321.613281 156.503906 318.925781 148.730469 313.253906 143.105469 L 310.910156 140.78125 C 307.324219 137.222656 305.582031 132.304688 306.132812 127.28125 C 306.683594 122.257812 309.449219 117.828125 313.726562 115.132812 C 315.929688 113.742188 316.589844 110.824219 315.199219 108.621094 C 313.8125 106.417969 310.898438 105.761719 308.6875 107.148438 C 301.964844 111.386719 297.613281 118.351562 296.746094 126.25 C 295.878906 134.148438 298.621094 141.890625 304.265625 147.488281 L 306.605469 149.808594" fill="inherit"></path><path d="M 225.285156 432.246094 C 225.285156 440.269531 219.425781 447.113281 211.945312 447.828125 C 207.6875 448.230469 203.640625 446.890625 200.519531 444.050781 C 197.433594 441.246094 195.664062 437.25 195.664062 433.085938 L 195.664062 388.164062 C 195.664062 385.554688 193.550781 383.441406 190.941406 383.441406 L 140.15625 383.441406 C 131.992188 383.441406 125.347656 376.800781 125.347656 368.632812 L 125.347656 287.121094 C 125.347656 282.898438 126.386719 278.988281 128.347656 275.824219 C 130.757812 271.933594 133.160156 271.28125 134.445312 271.171875 C 138.21875 272.300781 142.210938 272.917969 146.347656 272.917969 C 150.390625 272.917969 154.292969 272.324219 157.988281 271.246094 C 158.726562 271.605469 159.945312 273.039062 161.089844 276.171875 C 162.214844 279.257812 162.78125 282.71875 162.78125 286.464844 L 162.78125 349.097656 C 162.78125 351.707031 164.898438 353.816406 167.503906 353.816406 L 210.476562 353.816406 C 218.640625 353.816406 225.285156 360.460938 225.285156 368.632812 Z M 114.253906 231.382812 C 114.253906 213.6875 128.652344 199.285156 146.347656 199.285156 C 164.042969 199.285156 178.441406 213.6875 178.441406 231.382812 C 178.441406 249.078125 164.042969 263.476562 146.347656 263.476562 C 142.941406 263.476562 139.660156 262.9375 136.578125 261.949219 C 136.539062 261.9375 136.5 261.921875 136.457031 261.90625 C 123.589844 257.730469 114.253906 245.628906 114.253906 231.382812 Z M 210.476562 344.375 L 172.226562 344.375 L 172.226562 286.464844 C 172.226562 281.613281 171.464844 277.0625 169.960938 272.9375 C 169.121094 270.636719 168.171875 268.785156 167.15625 267.304688 C 179.539062 260.105469 187.886719 246.703125 187.886719 231.382812 C 187.886719 208.476562 169.253906 189.84375 146.347656 189.84375 C 123.445312 189.84375 104.8125 208.476562 104.8125 231.382812 C 104.8125 246.03125 112.441406 258.925781 123.933594 266.320312 C 122.683594 267.519531 121.464844 269.007812 120.320312 270.851562 C 117.433594 275.511719 115.90625 281.144531 115.90625 287.121094 L 115.90625 368.632812 C 115.90625 382.003906 126.785156 392.886719 140.15625 392.886719 L 186.222656 392.886719 L 186.222656 433.085938 C 186.222656 439.90625 189.117188 446.453125 194.167969 451.042969 C 198.640625 455.105469 204.496094 457.335938 210.519531 457.335938 C 211.292969 457.335938 212.066406 457.296875 212.84375 457.226562 C 225.113281 456.058594 234.726562 445.085938 234.726562 432.246094 L 234.726562 368.632812 C 234.726562 355.257812 223.847656 344.375 210.476562 344.375" fill="inherit"></path><path d="M 286.714844 368.632812 C 286.714844 360.460938 293.355469 353.816406 301.523438 353.816406 L 344.496094 353.816406 C 347.101562 353.816406 349.21875 351.707031 349.21875 349.097656 L 349.21875 286.464844 C 349.21875 282.71875 349.785156 279.257812 350.910156 276.171875 C 352.054688 273.039062 353.273438 271.605469 354.011719 271.246094 C 357.707031 272.324219 361.609375 272.917969 365.652344 272.917969 C 369.789062 272.917969 373.78125 272.300781 377.554688 271.171875 C 378.839844 271.28125 381.238281 271.933594 383.648438 275.820312 C 385.613281 278.988281 386.652344 282.898438 386.652344 287.121094 L 386.652344 368.632812 C 386.652344 376.800781 380.007812 383.441406 371.84375 383.441406 L 321.054688 383.441406 C 318.449219 383.441406 316.335938 385.554688 316.335938 388.164062 L 316.335938 433.085938 C 316.335938 437.25 314.566406 441.246094 311.480469 444.050781 C 308.355469 446.890625 304.304688 448.226562 300.050781 447.828125 C 292.574219 447.113281 286.714844 440.269531 286.714844 432.246094 Z M 333.558594 231.382812 C 333.558594 213.6875 347.953125 199.285156 365.652344 199.285156 C 383.347656 199.285156 397.746094 213.6875 397.746094 231.382812 C 397.746094 245.628906 388.410156 257.730469 375.539062 261.90625 C 375.5 261.921875 375.460938 261.9375 375.421875 261.949219 C 372.339844 262.9375 369.058594 263.476562 365.652344 263.476562 C 347.953125 263.476562 333.558594 249.078125 333.558594 231.382812 Z M 299.152344 457.226562 C 299.929688 457.296875 300.707031 457.335938 301.480469 457.335938 C 307.503906 457.335938 313.359375 455.105469 317.832031 451.042969 C 322.882812 446.453125 325.777344 439.90625 325.777344 433.085938 L 325.777344 392.886719 L 371.84375 392.886719 C 385.214844 392.886719 396.09375 382.003906 396.09375 368.632812 L 396.09375 287.121094 C 396.09375 281.136719 394.566406 275.511719 391.679688 270.851562 C 390.53125 269.007812 389.316406 267.519531 388.066406 266.324219 C 399.558594 258.925781 407.1875 246.03125 407.1875 231.382812 C 407.1875 208.476562 388.554688 189.84375 365.652344 189.84375 C 342.746094 189.84375 324.113281 208.476562 324.113281 231.382812 C 324.113281 246.703125 332.460938 260.105469 344.84375 267.304688 C 343.828125 268.785156 342.878906 270.636719 342.039062 272.9375 C 340.535156 277.0625 339.773438 281.613281 339.773438 286.464844 L 339.773438 344.375 L 301.523438 344.375 C 288.152344 344.375 277.269531 355.257812 277.269531 368.632812 L 277.269531 432.246094 C 277.269531 445.085938 286.882812 456.058594 299.152344 457.226562" fill="inherit"></path></g></svg>